<?xml version="1.0" standalone="no"?>
<!DOCTYPE svg PUBLIC "-//W3C//DTD SVG 20010904//EN"
 "http://www.w3.org/TR/2001/REC-SVG-20010904/DTD/svg10.dtd">
<svg version="1.0" xmlns="http://www.w3.org/2000/svg"
 width="512.000000pt" height="512.000000pt" viewBox="0 0 512.000000 512.000000"
 preserveAspectRatio="xMidYMid meet">

<g transform="translate(0.000000,512.000000) scale(0.100000,-0.100000)"
fill="#FFFFFF" stroke="none">
<path d="M4895 5106 c-16 -8 -1122 -1107 -2457 -2443 -2174 -2175 -2427 -2432
-2433 -2466 -11 -60 3 -107 44 -148 41 -41 88 -55 149 -44 32 6 95 64 512 481
l475 474 1116 0 c1226 0 1170 -3 1290 61 70 38 157 126 193 197 48 95 56 148
56 384 l0 218 540 -270 c398 -199 550 -270 576 -270 52 0 98 23 130 66 l29 37
0 1178 c0 1174 0 1178 -21 1205 -33 45 -70 67 -121 71 -47 5 -66 -4 -591 -266
l-542 -271 0 157 0 158 634 635 c561 561 635 639 641 673 25 133 -101 237
-220 183z m-95 -2546 l0 -860 -480 240 -480 240 0 380 0 380 478 239 c262 132
478 240 480 240 1 1 2 -386 2 -859z m-1285 -1157 c-7 -41 -50 -92 -92 -109
-27 -12 -202 -14 -975 -14 l-943 0 1005 1005 1005 1005 3 -927 c1 -511 0 -942
-3 -960z"/>
<path d="M363 4145 c-175 -47 -317 -196 -352 -367 -8 -37 -10 -454 -9 -1385 3
-1327 3 -1332 24 -1359 39 -53 71 -69 134 -69 63 0 95 16 134 69 21 27 21 34
26 1366 5 1332 5 1339 26 1366 11 15 33 37 48 48 27 21 33 21 1444 26 1584 6
1455 -1 1503 77 48 77 19 182 -62 223 -37 20 -65 20 -1451 19 -1183 0 -1422
-3 -1465 -14z"/>
</g>
</svg>
